HIERARCHY
ROOT joint_Root
{
	OFFSET 0.0 0.0 0.0
	CHANNELS 6 Xposition Yposition Zposition Zrotation Xrotation Yrotation 
	JOINT Hips
	{
		OFFSET 4.5925 91.4895 -427.239
		CHANNELS 6 Xposition Yposition Zposition Zrotation Xrotation Yrotation 
		JOINT Spine
		{
			OFFSET 15.7357 0.0 0.0
			CHANNELS 6 Xposition Yposition Zposition Zrotation Xrotation Yrotation 
			JOINT Chest
			{
				OFFSET 8.98455 -0.406207 0.0
				CHANNELS 6 Xposition Yposition Zposition Zrotation Xrotation Yrotation 
				JOINT Neck
				{
					OFFSET 16.3773 0.0 0.0
					CHANNELS 6 Xposition Yposition Zposition Zrotation Xrotation Yrotation 
					JOINT Head
					{
						OFFSET 6.45672 0.0 0.0
						CHANNELS 6 Xposition Yposition Zposition Zrotation Xrotation Yrotation 
						End Site
						{
							OFFSET 0.0 0.0 0.0
						}
					}
				}
				JOINT Shoulder_L
				{
					OFFSET 12.9942 -0.242716 4.98039
					CHANNELS 6 Xposition Yposition Zposition Zrotation Xrotation Yrotation 
					JOINT UpperArm_L
					{
						OFFSET 5.34809 0.0 0.0
						CHANNELS 6 Xposition Yposition Zposition Zrotation Xrotation Yrotation 
						JOINT LowerArm_L
						{
							OFFSET 24.3286 1.87007e-05 0.0
							CHANNELS 6 Xposition Yposition Zposition Zrotation Xrotation Yrotation 
							JOINT Hand_L
							{
								OFFSET 22.2916 0.0 0.0
								CHANNELS 6 Xposition Yposition Zposition Zrotation Xrotation Yrotation 
								End Site
								{
									OFFSET 0.0 0.0 0.0
								}
							}
						}
					}
				}
				JOINT Shoulder_R
				{
					OFFSET 12.9945 -0.242716 -4.98039
					CHANNELS 6 Xposition Yposition Zposition Zrotation Xrotation Yrotation 
					JOINT UpperArm_R
					{
						OFFSET -5.34813 0.0 0.0
						CHANNELS 6 Xposition Yposition Zposition Zrotation Xrotation Yrotation 
						JOINT LowerArm_R
						{
							OFFSET -24.3289 0.000322201 0.0
							CHANNELS 6 Xposition Yposition Zposition Zrotation Xrotation Yrotation 
							JOINT Hand_R
							{
								OFFSET -22.2915 -0.000108084 0.0
								CHANNELS 6 Xposition Yposition Zposition Zrotation Xrotation Yrotation 
								End Site
								{
									OFFSET 0.0 0.0 0.0
								}
							}
						}
					}
				}
			}
		}
		JOINT UpperLeg_L
		{
			OFFSET -2.19248 -6.46944 0.0
			CHANNELS 6 Xposition Yposition Zposition Zrotation Xrotation Yrotation 
			JOINT LowerLeg_L
			{
				OFFSET 39.0811 0.0 -1.23785e-05
				CHANNELS 6 Xposition Yposition Zposition Zrotation Xrotation Yrotation 
				JOINT Foot_L
				{
					OFFSET 40.9854 0.0 -1.26872e-05
					CHANNELS 6 Xposition Yposition Zposition Zrotation Xrotation Yrotation 
					JOINT Toes_L
					{
						OFFSET 11.7543 0.0 0.0
						CHANNELS 6 Xposition Yposition Zposition Zrotation Xrotation Yrotation 
						End Site
						{
							OFFSET 0.0 0.0 0.0
						}
					}
				}
			}
		}
		JOINT UpperLeg_R
		{
			OFFSET -2.19251 6.46944 0.0
			CHANNELS 6 Xposition Yposition Zposition Zrotation Xrotation Yrotation 
			JOINT LowerLeg_R
			{
				OFFSET -39.0811 -0.00228153 -0.0401928
				CHANNELS 6 Xposition Yposition Zposition Zrotation Xrotation Yrotation 
				JOINT Foot_R
				{
					OFFSET -40.9854 0.0 0.0
					CHANNELS 6 Xposition Yposition Zposition Zrotation Xrotation Yrotation 
					JOINT Toes_R
					{
						OFFSET -11.7543 0.0 0.0
						CHANNELS 6 Xposition Yposition Zposition Zrotation Xrotation Yrotation 
						End Site
						{
							OFFSET 0.0 0.0 0.0
						}
					}
				}
			}
		}
	}
}
MOTION
Frames:	4
Frame Time:	0.0333333
0.000000 0.000000 0.000000 0.000000 0.000000 -0.000000 2.667860 81.344100 -3.365550 86.654400 -14.162100 8.689950 15.735700 0.000005 -0.000001 93.292500 79.549000 -94.550400 8.984550 -0.406207 -0.000000 13.117200 1.129550 -2.646040 16.377300 -0.000001 -0.000001 -4.719750 -1.937020 1.692830 6.456720 -0.000001 -0.000000 -6.850740 -3.919070 9.285860 12.994200 -0.242716 4.980390 -91.611800 5.072100 -72.345000 5.348090 -0.000007 -0.000001 -67.122700 27.529700 -8.855610 24.328600 0.000019 0.000005 4.506240 16.398300 -15.597500 22.291600 -0.000001 0.000005 12.860600 5.329830 -0.780977 12.994500 -0.242716 -4.980390 88.872200 6.768970 -80.518100 -5.348130 -0.000001 -0.000004 -64.734300 31.868600 -7.695250 -24.328900 0.000322 -0.000009 -1.221780 -1.673520 -36.114500 -22.291500 -0.000108 -0.000004 21.265300 5.431730 -3.998550 -2.192480 -6.469440 -0.000000 -173.479000 -19.893900 -19.068900 39.081100 -0.000007 -0.000012 -0.426054 0.192993 65.631600 40.985400 -0.000006 -0.000013 1.792100 0.179304 -86.949300 11.754300 -0.000000 0.000003 -0.000408 -0.003365 -16.701500 -2.192510 6.469440 -0.000001 178.742000 6.654700 157.833000 -39.081100 -0.002282 -0.040193 0.044631 -0.019811 64.460300 -40.985400 0.000008 0.000006 6.575530 8.549050 -83.255100 -11.754300 -0.000006 -0.000006 -0.352217 -0.433968 -17.051000
0.000000 0.000000 0.000000 0.000000 0.000000 -0.000000 3.283070 82.624900 -2.602270 87.107300 -16.509600 8.816020 15.735700 0.000005 -0.000001 90.713600 80.095800 -91.470600 8.984550 -0.406207 -0.000000 12.042700 0.216344 -1.536340 16.377300 -0.000001 -0.000001 -4.148450 -1.432080 2.002450 6.456720 -0.000001 -0.000000 -5.843940 -2.234200 8.820570 12.994200 -0.242716 4.980390 -91.240500 3.963310 -72.605300 5.348090 -0.000007 -0.000001 -67.416300 26.578300 -9.051910 24.328600 0.000019 0.000005 3.900440 13.606100 -16.162800 22.291600 -0.000001 0.000005 9.601510 5.361380 -1.721800 12.994500 -0.242716 -4.980390 88.800700 6.946780 -80.179900 -5.348130 -0.000001 -0.000004 -65.090100 32.397900 -8.183530 -24.328900 0.000322 -0.000009 -0.305821 -0.479306 -32.446300 -22.291500 -0.000108 -0.000004 20.597400 5.409650 -3.253670 -2.192480 -6.469440 -0.000000 -174.198000 -20.987800 -16.253700 39.081100 -0.000007 -0.000012 -0.425893 0.228711 61.764500 40.985400 -0.000006 -0.000013 1.432780 -1.086430 -85.842500 11.754300 -0.000000 0.000003 -0.000405 -0.003344 -16.700800 -2.192510 6.469440 -0.000001 178.084000 4.051480 159.792000 -39.081100 -0.002282 -0.040193 0.026845 -0.013125 60.970900 -40.985400 0.000008 0.000006 5.736050 8.899010 -81.656700 -11.754300 -0.000006 -0.000006 -0.281759 -0.350040 -17.186900
0.000000 0.000000 0.000000 0.000000 0.000000 -0.000000 3.858700 84.634100 -1.806850 87.702000 -18.346700 8.368790 15.735700 0.000005 -0.000001 88.172200 81.078400 -88.252500 8.984550 -0.406207 -0.000000 10.068000 -0.567096 -0.110468 16.377300 -0.000001 -0.000001 -2.435000 -0.990729 2.000630 6.456720 -0.000001 -0.000000 -4.599980 -1.050370 7.924130 12.994200 -0.242716 4.980390 -90.813600 2.507800 -72.020100 5.348090 -0.000007 -0.000001 -61.109000 26.298700 -14.372700 24.328600 0.000019 0.000005 6.445450 19.045800 -19.095400 22.291600 -0.000001 0.000005 9.234120 5.398140 -2.877050 12.994500 -0.242716 -4.980390 88.770900 6.583570 -79.400400 -5.348130 -0.000001 -0.000004 -66.757100 31.470900 -6.186190 -24.328900 0.000322 -0.000009 0.183069 0.314159 -30.378100 -22.291500 -0.000108 -0.000004 20.480100 5.411170 -3.304050 -2.192480 -6.469440 -0.000000 -175.446000 -21.515000 -13.094900 39.081100 -0.000007 -0.000012 -0.381255 0.262853 55.417000 40.985400 -0.000006 -0.000013 1.101790 -2.436770 -83.392100 11.754300 -0.000000 0.000003 -0.000405 -0.003341 -16.700700 -2.192510 6.469440 -0.000001 177.189000 2.641860 162.315000 -39.081100 -0.002282 -0.040193 0.014573 -0.007901 55.148400 -40.985400 0.000008 0.000006 5.029050 9.914410 -78.889100 -11.754300 -0.000006 -0.000006 -0.201225 -0.256653 -17.419000
0.000000 0.000000 0.000000 0.000000 0.000000 -0.000000 4.225550 86.800200 -0.909923 88.414700 -19.744600 8.256840 15.735700 0.000005 -0.000001 86.504400 82.111200 -85.854600 8.984550 -0.406207 -0.000000 7.988850 -0.956609 1.365270 16.377300 -0.000001 -0.000001 0.197845 -1.049180 1.671180 6.456720 -0.000001 -0.000000 -2.827660 -0.265408 6.636070 12.994200 -0.242716 4.980390 -90.277700 0.834299 -71.592500 5.348090 -0.000007 -0.000001 -53.396100 15.859800 -21.863000 24.328600 0.000019 0.000005 6.328540 16.995200 -20.778300 22.291600 -0.000001 0.000005 8.533560 5.360670 -1.699960 12.994500 -0.242716 -4.980390 88.775700 5.895730 -78.247200 -5.348130 -0.000001 -0.000004 -68.349800 29.870700 -2.723610 -24.328900 0.000322 -0.000009 -0.398145 -0.685323 -30.088000 -22.291500 -0.000108 -0.000004 19.332900 5.415050 -3.433080 -2.192480 -6.469440 -0.000000 -176.469000 -21.981200 -8.891820 39.081100 -0.000007 -0.000012 -0.321795 0.293071 47.675400 40.985400 -0.000006 -0.000013 1.012810 -3.209260 -80.260700 11.754300 -0.000000 0.000003 -0.000312 -0.002690 -16.677600 -2.192510 6.469440 -0.000001 175.967000 2.902220 165.853000 -39.081100 -0.002282 -0.040193 0.004443 -0.001064 48.166800 -40.985400 0.000008 0.000006 4.396150 12.096100 -75.612400 -11.754300 -0.000006 -0.000006 -0.033730 -0.066543 -17.787700
